<?xml version="1.0" encoding="utf-8"?>
<!-- Generator: Adobe Illustrator 16.0.0, SVG Export Plug-In . SVG Version: 6.00 Build 0)  -->
<!DOCTYPE svg PUBLIC "-//W3C//DTD SVG 1.1//EN" "http://www.w3.org/Graphics/SVG/1.1/DTD/svg11.dtd">
<svg version="1.1" id="Layer_1" xmlns="http://www.w3.org/2000/svg" xmlns:xlink="http://www.w3.org/1999/xlink" x="0px" y="0px"
	 width="484.5px" height="147.5px" viewBox="0 0 484.5 147.5" enable-background="new 0 0 484.5 147.5" xml:space="preserve">
<path fill="#31948F" d="M89.791,65.988c8.148-6.402,13.152-15.06,13.152-24.59c0-8.995-4.457-17.212-11.81-23.488l-0.969-0.651
	c3.63-1.482,4.97-7.923,4.97-7.923c-1.633,1.633-10.228,2.607-12.533,2.843c-7.77-4.081-17.24-6.478-27.46-6.478
	c-10.116,0-19.497,2.348-27.222,6.353c-0.097,0.039-0.193,0.077-0.29,0.114c-2.433-0.25-10.828-1.22-12.439-2.832
	c0,0,1.258,6.052,4.643,7.773c0.044,0.036,0.088,0.073,0.14,0.114C12.129,23.582,7.338,32.072,7.338,41.398
	c0,9.53,5.001,18.188,13.151,24.59C10.214,74.274,3.769,86.195,3.769,99.442c0,25.032,23,45.323,51.372,45.323
	c1.463,0,2.918-0.096,4.354-0.225c-0.638-2.843-1.936-7.738-6.602-14.295c0,0,3.214,2.052,8.248,14.111
	c0.398-0.04-0.294,0.055,0.099,0.015c-0.001-0.009,0.282,0,0.279-0.009c0.397-0.029,0.294,0,0.681-0.044
	c0.008,0.024,0.731-0.111,0.739-0.088c24.917-3.125,43.574-21.941,43.574-44.789C106.512,86.195,100.065,74.274,89.791,65.988z"/>
<g>
	<circle fill="#FFFFFF" cx="78.718" cy="39.38" r="20.332"/>
	<circle fill="#FFFFFF" cx="31.562" cy="40.06" r="20.331"/>
	<circle fill="#1F6C8D" cx="35.895" cy="37.712" r="6.829"/>
	<circle fill="#1F6C8D" cx="74.676" cy="37.713" r="6.829"/>
</g>
<path fill="#A4D393" d="M48.032,52.006c0,5.453,1.987,4.606,7.108,9.447c4.561-4.84,7.109-3.994,7.109-9.447
	c0-5.453-2.86-4.627-7.134-7.368C50.841,47.379,48.032,46.553,48.032,52.006z"/>
<path fill="#1F6C8D" d="M129.645,22.914h18.41v88.88h55.531v16.751h-73.941V22.914z"/>
<path fill="#1F6C8D" d="M226.618,22.914h18.409v105.631h-18.409V22.914z"/>
<path fill="#1F6C8D" d="M273.821,22.914h18.41V76.03l50.252-53.116h22.787l-43.914,45.42l45.877,60.211h-22.486l-36.066-47.537
	l-16.449,16.903v30.634h-18.41V22.914z"/>
<path fill="#1F6C8D" d="M421.335,86.343l-41.951-63.981h21.883l29.578,46.778l29.877-46.778h21.277l-41.951,63.528v42.102h-18.713
	V86.343z"/>
<path fill="#1F6C8D" d="M50.44,145.03"/>
<path fill="#A4D393" d="M89.966,78.897c-3.763-7.091-11.741-10.935-19.68-9.538c-7.58,1.334-12.886,5.215-14.795,12.991
	c-0.019,0.081-0.189,0.124-0.357,0.228c-0.429-1.201-0.749-2.438-1.293-3.567c-3.154-6.535-8.733-9.494-15.652-9.845
	C27.647,68.629,19.977,75.14,18.33,85.757c-0.068,0.435-0.061,0.621-0.153,1.181c-0.004,0.072-0.008,0.134-0.013,0.196
	c0.047,4.037,3.595,8.187,5.988,10.53c0.383,0.324,0.765,0.669,1.137,1.054c10.229,8.326,13.689,11.201,28.835,33.359
	c0.294,0.306,0.47,0.726,0.703,1.091c0.261,0,0.348,0.004,0.609,0.004c0.321-0.459,0.761-0.978,1.147-1.379
	c10.071-10.437,20.135-20.881,30.246-31.279C92.439,94.743,93.75,86.027,89.966,78.897z"/>
</svg>
